<?xml version="1.0" encoding="UTF-8" standalone="no"?>
<!-- Created with Inkscape (http://www.inkscape.org/) -->

<svg
   width="134mm"
   height="35mm"
   viewBox="0 0 134 35"
   version="1.1"
   id="svg1"
   xml:space="preserve"
   inkscape:version="1.4 (e7c3feb100, 2024-10-09)"
   sodipodi:docname="no_risc_no_fun_sticker_1.svg"
   xmlns:inkscape="http://www.inkscape.org/namespaces/inkscape"
   xmlns:sodipodi="http://sodipodi.sourceforge.net/DTD/sodipodi-0.dtd"
   xmlns="http://www.w3.org/2000/svg"
   xmlns:svg="http://www.w3.org/2000/svg"><sodipodi:namedview
     id="namedview1"
     pagecolor="#ffffff"
     bordercolor="#666666"
     borderopacity="1.0"
     inkscape:showpageshadow="2"
     inkscape:pageopacity="0.0"
     inkscape:pagecheckerboard="0"
     inkscape:deskcolor="#d1d1d1"
     inkscape:document-units="mm"
     inkscape:zoom="0.84"
     inkscape:cx="367.85714"
     inkscape:cy="169.04762"
     inkscape:window-width="1536"
     inkscape:window-height="891"
     inkscape:window-x="0"
     inkscape:window-y="0"
     inkscape:window-maximized="1"
     inkscape:current-layer="layer1"
     showgrid="false" /><defs
     id="defs1"><rect
       x="137.71535"
       y="207.59474"
       width="313.92686"
       height="59.571995"
       id="rect3" /><rect
       x="116.30274"
       y="490.93628"
       width="802.41119"
       height="325.18326"
       id="rect2" /><rect
       x="134.52361"
       y="280.08322"
       width="602.39874"
       height="528.20648"
       id="rect1" /><rect
       x="116.30274"
       y="490.93628"
       width="802.41119"
       height="325.18326"
       id="rect2-7" /><rect
       x="137.71535"
       y="207.59474"
       width="313.92685"
       height="59.571995"
       id="rect3-7" /><rect
       x="137.71535"
       y="207.59474"
       width="313.92685"
       height="59.571995"
       id="rect3-7-2" /></defs><g
     inkscape:label="Layer 1"
     inkscape:groupmode="layer"
     id="layer1"><rect
       style="fill:#ffffff;stroke:none;stroke-width:9.52923;stroke-linecap:round;stroke-linejoin:round"
       id="rect4"
       width="134"
       height="35"
       x="5.3290705e-15"
       y="0" /><g
       id="g3"
       transform="translate(-13.459564,-50.513816)"><g
         id="g4"><path
           style="font-size:40px;line-height:1.25;font-family:Aeros;-inkscape-font-specification:Aeros;white-space:pre;fill:#283272;fill-opacity:1;stroke-width:0.395286"
           d="m 62.862489,66.550194 q -0.01581,0 -0.01581,0 v -0.01581 l -10.04026,-8.206135 v 8.111262 q 0,0.142303 -0.142303,0.142303 H 50.82999 q -0.142303,0 -0.142303,-0.142303 v -10.78339 q 0,-0.142303 0.142303,-0.142303 h 1.834126 q 0.04743,0 0.09487,0.04743 h 0.01581 l 10.024445,8.221941 v -8.127073 q 0,-0.142303 0.142303,-0.142303 h 1.834126 q 0.142303,0 0.142303,0.142303 v 10.783393 q 0,0.142303 -0.142303,0.142303 h -1.834126 q -0.04743,0 -0.07905,-0.03162 z m 9.550078,-11.036376 h 3.510137 q 1.486274,0 2.766999,0.743137 1.280726,0.743137 2.023863,2.023862 0.743137,1.264915 0.743137,2.767 0,1.502086 -0.743137,2.782811 -0.743137,1.264915 -2.023863,2.008051 -1.280725,0.743138 -2.766999,0.743138 h -3.510137 q -1.502086,0 -2.782811,-0.743138 -1.264914,-0.743136 -2.008051,-2.008051 -0.743138,-1.280725 -0.743138,-2.782811 0,-1.502085 0.743138,-2.767 0.743137,-1.280725 2.008051,-2.023862 1.280725,-0.743137 2.782811,-0.743137 z m 3.510137,8.949267 q 1.407216,0 2.403337,-0.996119 1.01193,-1.011932 1.01193,-2.419149 0,-1.407217 -1.01193,-2.403336 -0.996121,-1.011932 -2.403337,-1.011932 h -3.510137 q -0.917063,0 -1.707634,0.458532 -0.790571,0.45853 -1.249103,1.249103 -0.458532,0.774759 -0.458532,1.707633 0,1.407217 0.996121,2.419149 1.01193,0.996119 2.419148,0.996119 z"
           id="text1"
           aria-label="NO" /><path
           style="font-size:40px;line-height:1.25;font-family:Aeros;-inkscape-font-specification:Aeros;white-space:pre;fill:#f5b21b;fill-opacity:1;stroke-width:0.395286"
           d="m 62.862489,80.482196 q -0.01581,0 -0.01581,0 v -0.01581 l -10.04026,-8.206135 v 8.111262 q 0,0.142303 -0.142303,0.142303 H 50.82999 q -0.142303,0 -0.142303,-0.142303 v -10.78339 q 0,-0.142303 0.142303,-0.142303 h 1.834126 q 0.04743,0 0.09487,0.04743 h 0.01581 l 10.024445,8.221941 v -8.127073 q 0,-0.142303 0.142303,-0.142303 h 1.834126 q 0.142303,0 0.142303,0.142303 v 10.783393 q 0,0.142303 -0.142303,0.142303 h -1.834126 q -0.04743,0 -0.07905,-0.03162 z M 72.412567,69.44582 h 3.510137 q 1.486274,0 2.766999,0.743137 1.280726,0.743137 2.023863,2.023862 0.743137,1.264915 0.743137,2.767 0,1.502086 -0.743137,2.782811 -0.743137,1.264915 -2.023863,2.008051 -1.280725,0.743138 -2.766999,0.743138 h -3.510137 q -1.502086,0 -2.782811,-0.743138 -1.264914,-0.743136 -2.008051,-2.008051 -0.743138,-1.280725 -0.743138,-2.782811 0,-1.502085 0.743138,-2.767 0.743137,-1.280725 2.008051,-2.023862 1.280725,-0.743137 2.782811,-0.743137 z m 3.510137,8.949267 q 1.407216,0 2.403337,-0.996119 1.01193,-1.011932 1.01193,-2.419149 0,-1.407217 -1.01193,-2.403336 -0.996121,-1.011932 -2.403337,-1.011932 h -3.510137 q -0.917063,0 -1.707634,0.458532 -0.790571,0.45853 -1.249103,1.249103 -0.458532,0.774759 -0.458532,1.707633 0,1.407217 0.996121,2.419149 1.01193,0.996119 2.419148,0.996119 z"
           id="text1-1"
           aria-label="NO"
           inkscape:label="text1-1" /><path
           style="font-size:40px;line-height:1;font-family:Aeros;-inkscape-font-specification:Aeros;white-space:pre;fill:#283272;fill-opacity:1;stroke-width:0.395286"
           d="m 101.29398,62.154613 3.09904,4.4272 h -2.38753 c -0.0422,0 -0.0843,-0.0053 -0.12649,-0.01581 -0.0316,-0.01055 -0.0632,-0.03162 -0.0949,-0.06325 -0.0316,-0.03162 -0.058,-0.0527 -0.079,-0.06325 -0.0106,-0.02107 -0.0316,-0.05798 -0.0633,-0.11068 -0.0316,-0.0527 -0.0527,-0.08433 -0.0632,-0.09487 -0.27406,-0.390017 -0.56921,-0.811652 -0.88544,-1.264914 -0.31623,-0.453263 -0.65354,-0.938144 -1.011932,-1.454652 C 99.322795,62.997879 99.03292,62.581513 98.81156,62.265284 L 98.70088,62.10717 h -6.324572 v 4.332331 c 0,0.09487 -0.04743,0.142303 -0.142303,0.142303 H 90.39988 c -0.09487,0 -0.142303,-0.04743 -0.142303,-0.142303 V 63.293036 60.13075 55.656116 c 0,-0.09487 0.04743,-0.142303 0.142303,-0.142303 h 11.14706 c 0.60083,0 1.15423,0.147572 1.66019,0.44272 0.50597,0.295148 0.90652,0.695703 1.20167,1.201669 0.29515,0.505966 0.44272,1.054096 0.44272,1.644388 0,0.42164 -0.0791,0.822195 -0.23717,1.201669 -0.14757,0.379474 -0.35312,0.716784 -0.61665,1.011931 -0.26352,0.284606 -0.57975,0.527047 -0.94868,0.727326 -0.3584,0.189737 -0.73787,0.305687 -1.13842,0.347852 z m -8.917646,-4.522068 v 2.355903 h 9.186436 c 0.32678,0 0.60611,-0.11595 0.83801,-0.347852 0.2319,-0.231902 0.34785,-0.505966 0.34785,-0.822194 0,-0.326771 -0.11595,-0.606104 -0.34785,-0.838006 -0.2319,-0.231902 -0.51123,-0.347851 -0.83801,-0.347851 z m 14.530676,8.949268 c -0.0949,0 -0.1423,-0.04743 -0.1423,-0.142303 V 55.656116 c 0,-0.09487 0.0474,-0.142303 0.1423,-0.142303 h 1.83413 c 0.0949,0 0.1423,0.04744 0.1423,0.142303 V 66.43951 c 0,0.09487 -0.0474,0.142303 -0.1423,0.142303 z m 7.35231,-4.474634 c -0.59029,0 -1.13842,-0.147572 -1.64439,-0.44272 -0.50596,-0.295148 -0.90652,-0.695703 -1.20167,-1.201669 -0.29515,-0.505965 -0.44272,-1.059365 -0.44272,-1.6602 0,-0.90652 0.3215,-1.68128 0.9645,-2.32428 0.65354,-0.642999 1.4283,-0.964497 2.32428,-0.964497 h 10.90989 c 0.0949,0 0.1423,0.04744 0.1423,0.142303 v 1.834126 c 0,0.09487 -0.0474,0.142303 -0.1423,0.142303 h -10.90989 c -0.32677,0 -0.6061,0.115949 -0.83801,0.347851 -0.2319,0.231902 -0.34785,0.511235 -0.34785,0.838006 0,0.316228 0.11595,0.590292 0.34785,0.822194 0.23191,0.231902 0.51124,0.347852 0.83801,0.347852 h 8.00058 c 0.90652,0 1.68128,0.32677 2.32428,0.980308 0.65354,0.643 0.98031,1.41776 0.98031,2.32428 0,0.906521 -0.32677,1.681281 -0.98031,2.32428 -0.643,0.643 -1.41776,0.964497 -2.32428,0.964497 h -10.90988 c -0.0949,0 -0.14231,-0.04743 -0.14231,-0.142303 v -1.834125 c 0,-0.09487 0.0474,-0.142303 0.14231,-0.142303 h 10.92569 c 0.32678,0 0.60084,-0.115949 0.8222,-0.347852 0.2319,-0.231902 0.34785,-0.505965 0.34785,-0.822194 0,-0.326771 -0.11595,-0.606103 -0.34785,-0.838006 -0.22136,-0.231902 -0.49542,-0.347851 -0.8222,-0.347851 z M 132.648,55.513813 h 4.44301 4.45883 c 0.0949,0 0.1423,0.04744 0.1423,0.142303 v 1.834126 c 0,0.09487 -0.0474,0.142303 -0.1423,0.142303 H 132.648 c -0.61137,0 -1.18058,0.152845 -1.70763,0.458531 -0.52705,0.305687 -0.94342,0.722057 -1.2491,1.249103 -0.30569,0.516508 -0.45854,1.085719 -0.45854,1.707634 0,0.938144 0.33204,1.744527 0.99612,2.419149 0.67463,0.66408 1.48101,0.99612 2.41915,0.99612 h 8.90184 c 0.0949,0 0.1423,0.04743 0.1423,0.142303 v 1.834125 c 0,0.09487 -0.0474,0.142303 -0.1423,0.142303 H 132.648 c -1.00139,0 -1.92899,-0.247713 -2.78281,-0.743137 -0.84327,-0.495423 -1.51263,-1.164776 -2.00805,-2.008051 -0.49542,-0.853817 -0.74314,-1.781422 -0.74314,-2.782812 0,-1.001389 0.24772,-1.923725 0.74314,-2.767 0.49542,-0.853817 1.16478,-1.528439 2.00805,-2.023863 0.85382,-0.495423 1.78142,-0.743137 2.78281,-0.743137 z"
           id="text2"
           aria-label="RISC-V"
           sodipodi:nodetypes="ccscscscsssccssssccsssssscccccccssssscssssssssssssscssssssssssscscsssssscscssscsssssscscssssssccsccs" /><path
           style="font-size:40px;line-height:1;font-family:Aeros;-inkscape-font-specification:Aeros;letter-spacing:6.12591px;white-space:pre;fill:#f5b21b;fill-opacity:1;stroke-width:0.395269"
           d="m 95.791371,71.564926 q -0.948646,0 -1.770806,0.490134 -0.806349,0.490133 -1.24905,1.343915 l -0.284594,0.521755 h 11.383749 v 2.118642 H 92.376246 v 4.33215 q 0,0.142297 -0.142297,0.142297 H 90.3999 q -0.142297,0 -0.142297,-0.142297 v -4.474447 q 0,-0.948646 0,-1.011889 0.03162,-1.470401 0.774728,-2.719451 0.743106,-1.264861 2.007967,-1.992156 1.280672,-0.727296 2.751073,-0.727296 h 8.079299 v 2.118643 z m 26.817369,3.415125 q 0,1.502023 -0.7431,2.782695 -0.74311,1.264861 -2.02378,2.007967 -1.28067,0.743106 -2.76688,0.743106 h -3.50999 q -1.50203,0 -2.7827,-0.743106 -1.26486,-0.743106 -2.00796,-2.007967 -0.74311,-1.280672 -0.74311,-2.782695 V 69.58858 q 0,-0.142297 0.1423,-0.142297 h 1.83404 q 0.1423,0 0.1423,0.142297 v 5.391471 q 0,1.407158 0.99608,2.419047 1.01189,0.996078 2.41905,0.996078 h 3.50999 q 1.40715,0 2.40323,-0.996078 1.01189,-1.011889 1.01189,-2.419047 V 69.58858 q 0,-0.142297 0.1423,-0.142297 h 1.83405 q 0.14229,0 0.14229,0.142297 z m 16.82499,5.502146 q -0.0158,0 -0.0158,0 v -0.01581 L 129.37809,72.2606 v 8.110923 q 0,0.142297 -0.1423,0.142297 h -1.83405 q -0.14229,0 -0.14229,-0.142297 V 69.58858 q 0,-0.142297 0.14229,-0.142297 h 1.83405 q 0.0474,0 0.0949,0.04743 h 0.0158 l 10.02402,8.221597 v -8.12673 q 0,-0.142297 0.1423,-0.142297 h 1.83405 q 0.1423,0 0.1423,0.142297 v 10.782942 q 0,0.142297 -0.1423,0.142297 h -1.83405 q -0.0474,0 -0.079,-0.03162 z"
           id="text2-3"
           aria-label="fUN"
           inkscape:label="text2-3" /></g><g
         id="g8"
         transform="matrix(0.15893198,0,0,0.15893198,19.226988,55.513816)"><path
           class="st0"
           d="M 88,49.2 C 88,72.1 74.1,92.8 47.1,97.7 l 38.1,45 3.4,-4.8 68.6,-97 V 0 H 45.7 C 74.1,2.8 88,26.3 88,49.2 Z"
           id="path1"
           style="fill:#f5b21b" /><path
           class="st1"
           d="M 9.7,76.9 H 36 c 19.4,0 29.1,-13.8 29.1,-27.7 0,-13.9 -9.7,-27 -29.1,-27 H 0 V 157.3 H 67.2 L 9.7,88 Z m 97.7,73.4 50.6,-70.7 v 77.6 h -55.6 z"
           id="path2"
           style="fill:#283272;stroke:none" /></g></g></g></svg>
